<svg version="1.0" xmlns="http://www.w3.org/2000/svg" viewBox="0 0 586.000000 800.000000" preserveAspectRatio="xMidYMid meet">
    <g transform="translate(0.000000,800.000000) scale(0.100000,-0.100000)" fill="#13262C" stroke="none">
        <path d="M1905 7990 c-117 -14 -411 -104 -520 -158 -113 -55 -265 -161 -333 -230 -68 -70 -175 -213 -193 -258 -35 -89 -92 -317 -109 -437 -21 -146 -25 -335 -10 -447 29 -211 50 -355 64 -425 8 -44 22 -129 30 -190 9 -60 24 -144 35 -186 11 -42 22 -114 26 -160 4 -46 13 -109 22 -138 30 -111 9 -475 -36 -622 -45 -145 -179 -302 -325 -382 -148 -81 -253 -106 -436 -107 -52 0 -100 -4 -107 -8 -9 -6 -12 -69 -10 -247 l2 -240 145 -6 c82 -4 173 -14 210 -23 76 -20 226 -94 289 -142 95 -73 196 -218 232 -334 46 -148 67 -509 36 -621 -9 -29 -18 -92 -22 -138 -4 -46 -15 -118 -26 -160 -11 -42 -26 -125 -35 -186 -8 -60 -22 -146 -30 -190 -14 -70 -35 -214 -64 -425 -27 -194 1 -484 69 -721 44 -155 55 -178 126 -274 80 -109 171 -195 280 -267 170 -112 227 -136 500 -215 l160 -46 360 -4 360 -5 0 254 0 253 -165 11 c-438 29 -583 77 -763 251 -69 67 -99 115 -145 237 -54 142 -82 260 -94 397 -17 185 -6 264 87 622 13 48 33 143 44 210 12 67 26 136 31 152 20 65 30 209 30 435 -1 300 -11 409 -50 535 -57 186 -111 276 -236 395 -92 87 -160 126 -301 170 -104 33 -163 62 -163 80 0 18 60 48 174 84 148 47 221 92 320 197 96 100 157 212 207 374 38 126 48 237 49 535 0 226 -10 370 -30 435 -5 17 -19 85 -31 152 -11 67 -31 162 -44 210 -93 358 -104 437 -87 622 12 137 40 255 95 399 42 113 71 157 146 228 184 172 329 220 756 248 l170 11 0 252 0 253 -315 -1 c-173 -1 -342 -5 -375 -9z"/>
        <path d="M3253 7964 c4 -22 7 -136 7 -255 l0 -216 133 -7 c402 -20 588 -74 755 -219 103 -89 131 -136 201 -327 92 -253 103 -543 30 -803 -50 -175 -61 -219 -90 -371 -17 -89 -35 -179 -40 -201 -15 -61 -23 -562 -11 -700 23 -257 113 -458 278 -616 84 -80 167 -127 300 -169 104 -32 164 -62 164 -80 0 -18 -59 -47 -149 -75 -188 -58 -326 -156 -423 -299 -90 -132 -154 -320 -170 -501 -12 -138 -4 -639 11 -700 5 -22 23 -112 40 -201 29 -152 40 -195 90 -374 12 -41 29 -134 38 -207 27 -210 2 -402 -85 -640 -39 -108 -74 -167 -136 -226 -110 -107 -225 -174 -361 -210 -79 -21 -266 -44 -437 -53 l-138 -7 0 -222 c0 -122 -3 -237 -6 -255 l-7 -32 364 5 364 4 195 57 c217 63 314 105 452 196 147
        97 293 253 358 380 38 74 99 306 121 460 18 120 20 173 16 310 -4 91 -11 180 -16 198 -6 19 -15 79 -21 135 -6 56 -18 136 -26 177 -9 41 -24 134 -34 205 -10 72 -27 166 -39 210 -11 44 -23 118 -26 165 -4 47 -13 109 -22 139 -31 113 -10 472 36 622 47 149 178 301 333 386 131 72 213 93 373 99 72 3 140 7 152 10 21 4 21 6 21 241 0 167 -4 240 -12 245 -6 4 -54 8 -106 8 -183 1 -288 27 -436 107 -156 86 -278 235 -328 403 -43 143 -62 503 -33 611 9 30 18 92 22 139 3 47 15 121 26 165 12 44 29 139 39 210 10 72 25 164 34 205 8 41 20 121 26 177 6 56 15 116 21 135 5 18 12 107 16 198 4 137 2 190 -16 310 -21 146 -83 387 -116 451 -61 117 -220 284 -360 377 -161 106 -228 134 -505 213 l-145 41 -364 5 -364 5 6 -38z"/>
    </g>
</svg>
