<svg version="1.0" xmlns="http://www.w3.org/2000/svg" viewBox="0 0 586 800"><g fill="#13262C"><path d="M190.5 1c-11.7 1.4-41.1 10.4-52 15.8-11.3 5.5-26.5 16.1-33.3 23-6.8 7-17.5 21.3-19.3 25.8-3.5 8.9-9.2 31.7-10.9 43.7-2.1 14.6-2.5 33.5-1 44.7 2.9 21.1 5 35.5 6.4 42.5.8 4.4 2.2 12.9 3 19 .9 6 2.4 14.4 3.5 18.6 1.1 4.2 2.2 11.4 2.6 16 .4 4.6 1.3 10.9 2.2 13.8 3 11.1.9 47.5-3.6 62.2-4.5 14.5-17.9 30.2-32.5 38.2-14.8 8.1-25.3 10.6-43.6 10.7-5.2 0-10 .4-10.7.8-.9.6-1.2 6.9-1 24.7l.2 24 14.5.6c8.2.4 17.3 1.4 21 2.3 7.6 2 22.6 9.4 28.9 14.2 9.5 7.3 19.6 21.8 23.2 33.4 4.6 14.8 6.7 50.9 3.6 62.1-.9 2.9-1.8 9.2-2.2 13.8-.4 4.6-1.5 11.8-2.6 16-1.1 4.2-2.6 12.5-3.5 18.6-.8 6-2.2 14.6-3 19-1.4 7-3.5 21.4-6.4 42.5-2.7 19.4.1 48.4 6.9 72.1 4.4 15.5 5.5 17.8 12.6 27.4 8 10.9 17.1 19.5 28 26.7 17 11.2 22.7 13.6 50 21.5l16 4.6 36 .4 36 .5v-50.7l-16.5-1.1c-43.8-2.9-58.3-7.7-76.3-25.1-6.9-6.7-9.9-11.5-14.5-23.7-5.4-14.2-8.2-26-9.4-39.7-1.7-18.5-.6-26.4 8.7-62.2 1.3-4.8 3.3-14.3 4.4-21 1.2-6.7 2.6-13.6 3.1-15.2 2-6.5 3-20.9 3-43.5-.1-30-1.1-40.9-5-53.5-5.7-18.6-11.1-27.6-23.6-39.5-9.2-8.7-16-12.6-30.1-17-10.4-3.3-16.3-6.2-16.3-8 0-1.8 6-4.8 17.4-8.4 14.8-4.7 22.1-9.2 32-19.7 9.6-10 15.7-21.2 20.7-37.4 3.8-12.6 4.8-23.7 4.9-53.5 0-22.6-1-37-3-43.5-.5-1.7-1.9-8.5-3.1-15.2-1.1-6.7-3.1-16.2-4.4-21-9.3-35.8-10.4-43.7-8.7-62.2 1.2-13.7 4-25.5 9.5-39.9 4.2-11.3 7.1-15.7 14.6-22.8 18.4-17.2 32.9-22 75.6-24.8l17-1.1V0L228 .1c-17.3.1-34.2.5-37.5.9zM325.3 3.6c.4 2.2.7 13.6.7 25.5v21.6l13.3.7c40.2 2 58.8 7.4 75.5 21.9 10.3 8.9 13.1 13.6 20.1 32.7 9.2 25.3 10.3 54.3 3 80.3-5 17.5-6.1 21.9-9 37.1-1.7 8.9-3.5 17.9-4 20.1-1.5 6.1-2.3 56.2-1.1 70 2.3 25.7 11.3 45.8 27.8 61.6 8.4 8 16.7 12.7 30 16.9 10.4 3.2 16.4 6.2 16.4 8 0 1.8-5.9 4.7-14.9 7.5-18.8 5.8-32.6 15.6-42.3 29.9-9 13.2-15.4 32-17 50.1-1.2 13.8-.4 63.9 1.1 70 .5 2.2 2.3 11.2 4 20.1 2.9 15.2 4 19.5 9 37.4 1.2 4.1 2.9 13.4 3.8 20.7 2.7 21 .2 40.2-8.5 64-3.9 10.8-7.4 16.7-13.6 22.6-11 10.7-22.5 17.4-36.1 21-7.9 2.1-26.6 4.4-43.7 5.3l-13.8.7v22.2c0 12.2-.3 23.7-.6 25.5l-.7 3.2 36.4-.5 36.4-.4 19.5-5.7c21.7-6.3 31.4-10.5 45.2-19.6 14.7-9.7 29.3-25.3 35.8-38 3.8-7.4 9.9-30.6 12.1-46 1.8-12 2-17.3 1.6-31-.4-9.1-1.1-18-1.6-19.8-.6-1.9-1.5-7.9-2.1-13.5-.6-5.6-1.8-13.6-2.6-17.7-.9-4.1-2.4-13.4-3.4-20.5-1-7.2-2.7-16.6-3.9-21-1.1-4.4-2.3-11.8-2.6-16.5-.4-4.7-1.3-10.9-2.2-13.9-3.1-11.3-1-47.2 3.6-62.2 4.7-14.9 17.8-30.1 33.3-38.6 13.1-7.2 21.3-9.3 37.3-9.9 7.2-.3 14-.7 15.2-1 2.1-.4 2.1-.6 2.1-24.1 0-16.7-.4-24-1.2-24.5-.6-.4-5.4-.8-10.6-.8-18.3-.1-28.8-2.7-43.6-10.7-15.6-8.6-27.8-23.5-32.8-40.3-4.3-14.3-6.2-50.3-3.3-61.1.9-3 1.8-9.2 2.2-13.9.3-4.7 1.5-12.1 2.6-16.5 1.2-4.4 2.9-13.9 3.9-21 1-7.2 2.5-16.4 3.4-20.5.8-4.1 2-12.1 2.6-17.7.6-5.6 1.5-11.6 2.1-13.5.5-1.8 1.2-10.7 1.6-19.8.4-13.7.2-19-1.6-31-2.1-14.6-8.3-38.7-11.6-45.1-6.1-11.7-22-28.4-36-37.7-16.1-10.6-22.8-13.4-50.5-21.3L397.5.8 361.1.3l-36.4-.5.6 3.8z"/></g></svg>