<?xml version="1.0" standalone="no"?>
<!DOCTYPE svg PUBLIC "-//W3C//DTD SVG 20010904//EN"
 "http://www.w3.org/TR/2001/REC-SVG-20010904/DTD/svg10.dtd">
<svg version="1.0" xmlns="http://www.w3.org/2000/svg"
 width="400.000000pt" height="400.000000pt" viewBox="0 0 400.000000 400.000000"
 preserveAspectRatio="xMidYMid meet">
<metadata>
Created by potrace 1.11, written by Peter Selinger 2001-2013
</metadata>
<g transform="translate(0.000000,400.000000) scale(0.100000,-0.100000)"
fill="#000000" stroke="none">
<path d="M1428 3965 c-59 -7 -124 -19 -145 -26 -71 -23 -195 -89 -231 -121
-63 -60 -82 -81 -82 -93 0 -7 -7 -18 -16 -26 -24 -20 -50 -77 -75 -169 -20
-73 -23 -108 -23 -245 0 -93 8 -221 18 -305 12 -97 19 -220 20 -371 l1 -227
-40 -58 c-34 -50 -52 -65 -117 -98 -57 -29 -93 -39 -142 -43 l-66 -6 0 -187
c0 -186 0 -188 22 -194 13 -3 33 -6 46 -6 13 0 58 -12 100 -26 81 -27 146 -77
180 -139 26 -46 22 -396 -8 -675 -27 -256 -24 -379 13 -516 57 -215 193 -343
430 -405 65 -17 122 -22 275 -26 l192 -5 0 205 0 204 -83 5 c-88 6 -173 34
-215 72 -47 42 -71 98 -83 196 -12 96 -9 152 32 585 20 205 -9 408 -71 505
-62 97 -134 146 -285 195 l-70 23 45 11 c65 16 229 101 251 130 10 15 25 33
32 41 82 89 122 308 98 540 -35 341 -44 486 -33 576 12 105 23 131 84 195 37
38 54 47 103 57 32 7 89 12 127 12 l68 0 0 215 0 215 -122 -1 c-68 -1 -171 -7
-230 -14z"/>
<path d="M2100 3765 l0 -215 78 0 c170 -1 243 -45 296 -180 31 -79 31 -202 1
-444 -23 -185 -27 -246 -23 -385 5 -156 7 -171 36 -251 42 -113 105 -182 217
-239 44 -23 97 -44 118 -48 53 -8 54 -19 2 -32 -24 -6 -77 -26 -119 -45 -131
-60 -206 -161 -247 -333 -20 -85 -13 -319 16 -548 29 -226 30 -364 2 -440 -46
-127 -131 -184 -289 -193 l-88 -5 0 -204 0 -205 193 4 c213 5 327 26 420 76
27 15 62 34 78 42 89 48 196 215 226 352 21 101 12 477 -17 718 -52 426 9 552
293 600 l67 12 0 189 0 189 -50 0 c-66 0 -164 33 -222 75 -110 80 -130 230
-82 595 12 86 17 206 18 385 1 289 0 297 -71 430 -63 119 -172 208 -323 264
-71 26 -273 51 -417 51 l-113 0 0 -215z"/>
</g>
</svg>
